<svg width="871" height="261" viewBox="0 0 871 261" fill="none" xmlns="http://www.w3.org/2000/svg">
<path d="M870.392 208.746H837.384V195.27C833.478 200.608 828.757 204.579 823.224 207.184C817.755 209.723 811.733 210.992 805.157 210.992C796.563 210.992 788.881 209.462 782.11 206.402C775.34 203.342 769.61 199.176 764.923 193.902C760.235 188.564 756.655 182.314 754.181 175.152C751.707 167.991 750.47 160.309 750.47 152.105C750.47 143.902 751.707 136.22 754.181 129.059C756.655 121.897 760.235 115.68 764.923 110.406C769.61 105.068 775.34 100.868 782.11 97.8086C788.881 94.7487 796.563 93.2188 805.157 93.2188C809.519 93.2188 813.653 93.8698 817.56 95.1719C821.531 96.474 825.144 98.3294 828.399 100.738C831.72 103.082 834.617 105.947 837.091 109.332C839.63 112.652 841.616 116.363 843.048 120.465L857.696 95.9531H870.392V208.746ZM837.188 152.105C837.188 149.176 837.026 146.083 836.7 142.828C836.44 139.573 835.951 136.35 835.235 133.16C834.519 129.97 833.51 126.943 832.208 124.078C830.971 121.148 829.343 118.577 827.325 116.363C825.372 114.085 822.996 112.294 820.196 110.992C817.397 109.69 814.142 109.039 810.431 109.039C806.72 109.039 803.497 109.723 800.763 111.09C798.028 112.392 795.685 114.182 793.731 116.461C791.778 118.674 790.151 121.246 788.849 124.176C787.612 127.105 786.635 130.165 785.919 133.355C785.203 136.546 784.682 139.768 784.356 143.023C784.096 146.214 783.966 149.241 783.966 152.105C783.966 154.97 784.096 158.03 784.356 161.285C784.682 164.54 785.203 167.763 785.919 170.953C786.635 174.143 787.612 177.203 788.849 180.133C790.151 183.062 791.778 185.667 793.731 187.945C795.685 190.159 798.028 191.949 800.763 193.316C803.497 194.618 806.72 195.27 810.431 195.27C813.816 195.27 816.811 194.586 819.415 193.219C822.084 191.786 824.396 189.898 826.349 187.555C828.367 185.211 830.06 182.542 831.427 179.547C832.794 176.552 833.901 173.46 834.747 170.27C835.593 167.079 836.212 163.922 836.603 160.797C836.993 157.607 837.188 154.71 837.188 152.105Z" fill="#115AA8"/>
<path d="M745.099 95.9531L704.083 195.172C699.396 206.5 694.155 217.698 688.36 228.766C682.631 239.898 676.414 250.576 669.708 260.797L656.817 252.984C658.445 250.055 660.366 246.669 662.579 242.828C664.793 238.987 666.974 235.016 669.122 230.914C671.271 226.812 673.256 222.743 675.079 218.707C676.902 214.736 678.302 211.09 679.278 207.77L629.962 95.9531H662.97L696.466 172.223L722.247 95.9531H745.099Z" fill="#115AA8"/>
<path d="M630.255 105.914L611.7 136.676C610.919 134.072 609.91 131.142 608.673 127.887C607.436 124.632 605.906 121.604 604.083 118.805C602.26 115.94 600.079 113.564 597.54 111.676C595.001 109.723 592.071 108.746 588.751 108.746C585.691 108.746 583.022 109.527 580.743 111.09C578.53 112.652 576.642 114.703 575.079 117.242C573.517 119.716 572.215 122.548 571.173 125.738C570.196 128.863 569.415 132.053 568.829 135.309C568.308 138.499 567.95 141.591 567.755 144.586C567.56 147.516 567.462 150.055 567.462 152.203V208.746H534.356V95.9531H547.052L560.431 122.223C562.254 117.991 564.337 114.117 566.681 110.602C569.024 107.021 571.726 103.961 574.786 101.422C577.846 98.8177 581.297 96.7995 585.138 95.3672C589.044 93.9349 593.438 93.2188 598.321 93.2188C600.86 93.2188 603.692 93.4466 606.817 93.9023C609.942 94.293 613.002 95.0091 615.997 96.0508C618.992 97.0273 621.759 98.3294 624.298 99.957C626.837 101.585 628.823 103.57 630.255 105.914Z" fill="#115AA8"/>
<path d="M508.087 68.707C508.087 71.181 507.599 73.5247 506.622 75.7383C505.711 77.9518 504.441 79.8724 502.813 81.5C501.186 83.1276 499.265 84.4297 497.052 85.4062C494.838 86.3177 492.494 86.7734 490.021 86.7734C487.547 86.7734 485.203 86.3177 482.989 85.4062C480.841 84.4297 478.953 83.1276 477.325 81.5C475.698 79.8724 474.396 77.9518 473.419 75.7383C472.507 73.5247 472.052 71.181 472.052 68.707C472.052 66.2331 472.507 63.9219 473.419 61.7734C474.396 59.5599 475.698 57.6393 477.325 56.0117C478.953 54.3841 480.841 53.1146 482.989 52.2031C485.203 51.2266 487.547 50.7383 490.021 50.7383C492.494 50.7383 494.838 51.2266 497.052 52.2031C499.265 53.1146 501.186 54.3841 502.813 56.0117C504.441 57.6393 505.711 59.5599 506.622 61.7734C507.599 63.9219 508.087 66.2331 508.087 68.707ZM506.622 208.746H473.517V96.0508H506.622V208.746Z" fill="#115AA8"/>
<path d="M445.88 208.746H412.872V44H425.567L445.88 78.2773V208.746Z" fill="#115AA8"/>
<path d="M270.001 160.504C270.001 155.361 270.424 150.022 271.271 144.488C272.182 138.954 273.451 133.421 275.079 127.887C276.772 122.353 278.79 116.884 281.134 111.48C283.478 106.077 286.114 100.901 289.044 95.9531H313.165C311.537 100.836 310.073 105.947 308.771 111.285C307.534 116.559 306.459 121.865 305.548 127.203C304.701 132.477 304.018 137.652 303.497 142.73C303.041 147.809 302.813 152.529 302.813 156.891C302.813 159.43 302.911 162.164 303.106 165.094C303.367 167.958 303.79 170.855 304.376 173.785C304.962 176.65 305.776 179.417 306.817 182.086C307.924 184.755 309.324 187.132 311.017 189.215C312.709 191.233 314.76 192.861 317.169 194.098C319.643 195.27 322.54 195.855 325.86 195.855C329.116 195.855 332.013 195.139 334.552 193.707C337.156 192.21 339.435 190.289 341.388 187.945C343.341 185.536 345.001 182.802 346.368 179.742C347.735 176.682 348.842 173.557 349.688 170.367C350.6 167.112 351.251 163.954 351.642 160.895C352.097 157.77 352.325 154.97 352.325 152.496V95.9531H385.333V208.746H372.638L357.501 182.477C355.613 186.839 353.302 190.81 350.567 194.391C347.898 197.906 344.838 200.934 341.388 203.473C337.937 206.012 334.096 207.965 329.864 209.332C325.698 210.699 321.173 211.383 316.29 211.383C308.478 211.383 301.674 210.113 295.88 207.574C290.086 205.035 285.268 201.52 281.427 197.027C277.586 192.535 274.721 187.197 272.833 181.012C270.945 174.762 270.001 167.926 270.001 160.504Z" fill="#115AA8"/>
<path d="M135.961 42.723C121.129 65.8242 126.073 73.7446 126.073 73.7446L184.08 177.807H143.871L145.848 197.608H195.616L201.219 208.169H254.282C254.282 208.169 169.249 49.1009 159.691 31.6101C150.133 14.1192 143.871 9.16895 143.871 9.16895C143.871 9.16895 150.792 19.6218 135.961 42.723Z" fill="#F34A39"/>
<ellipse cx="128.282" cy="189.669" rx="21" ry="21.5" fill="#D9D9D9"/>
<ellipse cx="128.282" cy="189.669" rx="21" ry="21.5" fill="#135CA7"/>
<circle cx="85.2822" cy="187.169" r="8" fill="#135CA7"/>
<ellipse cx="127.282" cy="110.669" rx="9" ry="8.5" fill="#135CA7"/>
<circle cx="167.282" cy="13.1689" r="9" fill="#135CA7"/>
<path d="M111.696 130.169H143.54L160.282 159.169H95.2822L111.696 130.169Z" fill="#135CA7"/>
<path d="M107.489 1.13667C122.707 -0.711883 130.135 -0.3915 135.887 2.7314C139.215 4.20428 141.994 6.48161 144.526 9.87495L144.837 10.2978L144.838 10.2998L144.73 10.375L144.731 10.3759C144.838 10.3002 144.839 10.3004 144.839 10.3007L144.84 10.3017L144.848 10.3134C144.852 10.3204 144.859 10.3303 144.866 10.3417C144.882 10.3649 144.903 10.3977 144.929 10.4394C144.98 10.5232 145.05 10.6448 145.131 10.8046C145.294 11.1254 145.504 11.6017 145.706 12.2412C146.11 13.5213 146.477 15.4518 146.372 18.1015C146.162 23.4014 144.063 31.5559 136.62 43.1337C129.236 54.6203 126.804 62.2885 126.199 67.0488C125.897 69.4271 126.05 71.08 126.27 72.122C126.379 72.6431 126.506 73.0135 126.601 73.247C126.648 73.3636 126.688 73.4464 126.714 73.497C126.727 73.5222 126.736 73.5403 126.741 73.5498C126.744 73.5539 126.746 73.5566 126.746 73.5576L126.9 73.8046L126.758 74.0625L52.6602 207.767L52.5176 208.024H0L0.411133 207.282L34.3018 145.958C27.0561 132.35 22.9884 117.064 22.9883 100.908C22.9883 52.8912 56.6775 6.16321 107.489 1.13667ZM102.204 23.0947C95.2309 25.0496 69.4467 33.8619 53.9883 60.6367C39.1185 86.3923 44.7236 113.953 47.1221 122.76L102.204 23.0947Z" fill="#135CA7"/>
<path d="M192.975 15.2256C218.886 30.1857 238.801 56.2506 243.87 86.0039C244.827 91.4574 245.305 96.9972 245.305 102.539C245.305 108.078 244.827 113.618 243.87 119.072C241.449 132.96 235.86 146.249 227.84 157.823L227.384 158.483L226.992 157.782C222.902 150.461 218.812 143.14 214.722 135.819L214.594 135.591L214.709 135.355C219.817 124.984 222.534 113.442 222.517 101.879C222.824 73.2504 205.161 46.308 180.474 32.4375L179.989 32.1592L180.319 31.709C183.58 27.2673 186.841 22.8245 190.102 18.3828C190.359 18.0326 190.616 17.6822 190.873 17.332C191.355 16.6753 191.837 16.0181 192.319 15.3613L192.586 14.998L192.975 15.2256Z" fill="#135CA7"/>
</svg>
